<svg xmlns="http://www.w3.org/2000/svg" width="32" height="32" viewBox="0 0 32 32" fill="none">
  <defs>
    <linearGradient id="nailGradient" x1="0%" y1="0%" x2="100%" y2="100%">
      <stop offset="0%" style="stop-color:#FF6B9D;stop-opacity:1" />
      <stop offset="50%" style="stop-color:#A855F7;stop-opacity:1" />
      <stop offset="100%" style="stop-color:#3B82F6;stop-opacity:1" />
    </linearGradient>
    <filter id="glow">
      <feGaussianBlur stdDeviation="2" result="coloredBlur"/>
      <feMerge>
        <feMergeNode in="coloredBlur"/>
        <feMergeNode in="SourceGraphic"/>
      </feMerge>
    </filter>
  </defs>

  <!-- Background circle -->
  <circle cx="16" cy="16" r="15" fill="url(#nailGradient)" opacity="0.1"/>

  <!-- Main nail shape -->
  <path d="M12 8 C12 6, 14 4, 16 4 C18 4, 20 6, 20 8 L20 22 C20 24, 18 26, 16 26 C14 26, 12 24, 12 22 Z"
        fill="url(#nailGradient)"
        filter="url(#glow)"/>

  <!-- Nail art sparkles -->
  <circle cx="14" cy="12" r="1" fill="#FFFFFF" opacity="0.8"/>
  <circle cx="18" cy="10" r="0.5" fill="#FFFFFF" opacity="0.6"/>
  <circle cx="16" cy="16" r="1.5" fill="#FFFFFF" opacity="0.4"/>
  <circle cx="15" cy="20" r="0.8" fill="#FFFFFF" opacity="0.7"/>

  <!-- AI sparkle effect -->
  <path d="M22 6 L23 8 L25 7 L24 9 L26 10 L24 11 L25 13 L23 12 L22 14 L21 12 L19 13 L20 11 L18 10 L20 9 L19 7 L21 8 Z"
        fill="#FFD700"
        opacity="0.8"/>
</svg>